<?xml version="1.0" standalone="no"?>
<!DOCTYPE svg PUBLIC "-//W3C//DTD SVG 20010904//EN"
 "http://www.w3.org/TR/2001/REC-SVG-20010904/DTD/svg10.dtd">
<svg version="1.0" xmlns="http://www.w3.org/2000/svg"
 width="300.000000pt" height="300.000000pt" viewBox="0 0 300.000000 300.000000"
 preserveAspectRatio="xMidYMid meet">
<metadata>
Created by potrace 1.10, written by Peter Selinger 2001-2011
</metadata>
<g transform="translate(0.000000,300.000000) scale(0.050000,-0.050000)"
fill="#000000" stroke="none">
<path d="M2810 5645 c-22 -4 -53 -13 -70 -19 -16 -7 -39 -10 -50 -7 -60 15
-107 13 -96 -5 7 -12 -8 -15 -42 -6 -30 7 -65 6 -78 -2 -31 -19 -70 -28 -139
-31 -30 -1 -55 -10 -55 -21 0 -10 -18 -14 -40 -8 -22 6 -40 2 -40 -8 0 -10
-22 -18 -49 -18 -27 0 -54 -9 -60 -19 -7 -11 -27 -14 -45 -7 -22 9 -28 5 -18
-10 9 -16 3 -19 -17 -12 -17 7 -31 2 -31 -11 0 -13 -9 -18 -20 -11 -24 15
-105 -38 -87 -56 7 -7 -7 -9 -30 -5 -24 5 -43 0 -43 -11 0 -11 -9 -15 -20 -8
-11 7 -20 3 -20 -8 0 -26 -111 -85 -127 -68 -7 7 -13 2 -13 -12 0 -13 -9 -19
-20 -12 -11 7 -20 3 -20 -9 0 -11 -13 -21 -30 -21 -17 0 -49 -19 -72 -42 -22
-22 -54 -36 -70 -30 -19 7 -28 -4 -28 -34 -1 -32 -5 -37 -18 -17 -13 21 -19
20 -29 -7 -7 -18 -21 -27 -32 -21 -10 7 -29 -6 -41 -28 -11 -22 -43 -46 -70
-53 -28 -7 -45 -20 -39 -30 6 -10 1 -18 -11 -18 -12 0 -50 -29 -85 -65 -34
-36 -50 -47 -34 -25 15 22 -2 13 -38 -20 -35 -33 -74 -81 -84 -108 -11 -26
-26 -42 -32 -35 -19 18 -90 -27 -76 -49 7 -10 -9 -41 -34 -67 -25 -26 -47 -68
-48 -94 -1 -26 -7 -60 -14 -77 -6 -16 -26 -79 -45 -140 -18 -60 -45 -129 -60
-152 -21 -33 -22 -48 -4 -68 19 -20 18 -22 -4 -10 -21 12 -26 8 -16 -16 7 -20
-1 -41 -22 -53 -24 -14 -26 -20 -7 -20 21 -1 22 -8 6 -27 -12 -15 -24 -58 -26
-95 -3 -38 -18 -89 -33 -114 -16 -25 -22 -45 -14 -45 8 0 6 -11 -4 -25 -25
-33 -29 -115 -6 -115 18 0 15 -119 -4 -152 -6 -10 -4 -36 5 -58 16 -39 16 -38
18 4 2 74 161 161 161 88 0 -15 144 3 215 27 92 32 36 111 -78 111 -50 0 -83
-12 -101 -37 -28 -40 -80 -41 -127 -2 -46 38 -35 93 21 107 128 32 363 292
265 292 -14 0 -37 -18 -50 -40 -14 -22 -38 -40 -54 -40 -16 0 -34 -9 -41 -20
-7 -11 1 -14 19 -8 20 8 31 1 31 -20 0 -37 -22 -48 -110 -56 -61 -6 -77 54
-31 114 17 22 90 302 91 350 1 17 20 60 44 98 23 37 38 78 33 92 -5 14 4 30
20 36 18 7 26 27 20 51 -8 30 5 48 51 72 38 20 62 48 62 72 0 25 20 48 53 60
29 11 97 60 152 109 1043 939 2603 931 3560 -18 235 -233 617 -896 580 -1007
-5 -14 1 -25 13 -25 12 0 23 16 24 35 1 19 4 64 6 100 3 36 -2 65 -12 65 -9 0
-15 7 -14 15 2 8 1 22 -2 30 -3 8 -7 24 -10 35 -3 11 -7 22 -9 25 -2 3 -7 22
-11 43 -4 21 -19 46 -34 55 -14 9 -18 17 -8 17 10 0 4 16 -12 35 -17 19 -28
51 -25 70 3 19 -3 30 -13 24 -10 -7 -24 16 -31 50 -6 33 -20 61 -29 61 -10 0
-18 14 -18 31 0 17 -9 26 -20 19 -11 -7 -20 2 -20 20 0 19 -9 27 -23 18 -16
-10 -18 -5 -6 14 23 36 29 78 12 74 -25 -5 -83 28 -83 47 0 11 10 13 21 6 12
-7 11 5 -4 28 -14 22 -32 36 -41 30 -9 -5 -22 7 -29 27 -7 20 -32 53 -55 73
-23 20 -28 29 -12 21 26 -13 26 -11 3 18 -15 18 -37 28 -48 21 -12 -7 -16 -4
-9 7 7 11 -7 38 -31 58 -44 38 -44 37 -15 -2 29 -39 29 -39 -14 -3 -24 20 -38
50 -32 65 7 19 1 25 -20 17 -20 -8 -35 3 -44 30 -7 23 -21 36 -32 30 -10 -6
-24 2 -30 20 -7 17 -20 26 -30 20 -10 -7 -24 2 -30 20 -7 17 -20 26 -30 20
-10 -6 -18 0 -18 13 0 14 -6 19 -12 12 -17 -17 -73 41 -60 62 5 9 -10 16 -34
15 -26 0 -42 10 -39 25 4 15 -4 21 -16 14 -31 -20 -141 30 -126 57 8 13 7 17
-1 10 -21 -19 -133 21 -182 63 -22 19 -53 35 -70 35 -16 -1 -66 15 -110 35
-44 20 -102 40 -130 44 -27 5 -59 17 -71 27 -13 10 -28 13 -35 6 -7 -7 -19 2
-26 20 -9 24 -21 27 -47 13 -20 -10 -39 -15 -44 -10 -9 8 -41 15 -257 49 -71
11 -150 25 -175 30 -24 5 -49 0 -56 -11 -6 -10 -22 -12 -35 -4 -30 18 -53 21
-104 11z"/>
<path d="M3091 5245 c-6 -7 -100 -10 -210 -8 -122 2 -204 -5 -212 -18 -21 -34
2 -43 110 -42 55 0 101 -8 101 -19 0 -26 144 -1 170 30 23 27 90 19 90 -10 0
-11 40 -18 90 -15 49 2 95 -1 102 -9 7 -7 29 -4 49 6 25 14 38 11 46 -10 14
-36 155 -41 218 -7 42 22 42 22 -7 49 -71 39 -517 82 -547 53z"/>
<path d="M2195 5204 c-19 -4 -35 -13 -35 -21 0 -13 116 -9 170 5 32 9 -96 24
-135 16z"/>
<path d="M2394 5067 c-7 -7 -63 -15 -124 -17 -62 -3 -119 -12 -126 -21 -8 -8
23 -10 69 -4 70 9 85 5 93 -27 8 -28 28 -38 81 -38 39 0 75 -7 81 -16 28 -46
242 3 246 56 4 52 -276 111 -320 67z"/>
<path d="M2891 5042 c-33 -13 -30 -17 25 -28 61 -12 91 -54 39 -54 -14 0 22
-27 79 -60 69 -40 132 -60 186 -60 67 0 81 -6 76 -35 -4 -26 8 -35 46 -35 28
0 73 -10 100 -22 141 -65 203 -88 241 -88 24 0 45 -16 51 -40 17 -64 134 -75
194 -18 l48 46 -101 36 c-55 19 -131 65 -167 102 -70 69 -209 120 -398 145
-103 13 -157 41 -139 71 19 30 -218 63 -280 40z"/>
<path d="M1746 4981 c-81 -37 -306 -192 -306 -212 0 -35 107 3 167 60 40 37
113 88 163 113 143 71 122 105 -24 39z"/>
<path d="M2744 4955 c-25 -12 -42 -31 -38 -43 9 -26 127 -17 183 13 78 42 -61
71 -145 30z"/>
<path d="M3733 4905 c69 -75 137 -103 221 -93 91 11 129 42 74 59 -21 7 -63
26 -95 43 -31 16 -99 33 -152 36 l-95 6 47 -51z"/>
<path d="M1990 4889 c-11 -3 -45 -11 -76 -18 -61 -13 -33 -71 35 -71 17 0 31
-9 31 -19 0 -41 131 -84 189 -61 40 15 63 15 82 -1 18 -15 29 -14 40 2 8 13
37 18 68 12 29 -6 87 -3 127 6 41 9 74 10 74 1 0 -8 18 -20 40 -26 24 -6 40
-27 40 -52 0 -29 13 -42 41 -42 68 0 228 45 244 68 11 15 20 14 31 -3 11 -17
39 -21 83 -12 122 24 29 54 -279 89 -104 12 -206 30 -225 40 -19 10 -57 18
-84 18 -27 0 -54 8 -60 18 -17 29 -340 70 -401 51z"/>
<path d="M4083 4791 c-46 -24 -44 -26 60 -60 59 -19 117 -43 129 -53 14 -11
20 -3 18 27 -2 26 -27 56 -62 74 -79 41 -90 42 -145 12z"/>
<path d="M1791 4677 c-44 -10 -99 -36 -122 -58 -23 -21 -56 -39 -73 -39 -17 0
-42 -13 -56 -30 -14 -16 -33 -30 -44 -30 -10 0 -49 -32 -86 -71 -57 -61 -74
-68 -107 -50 -55 29 -104 27 -92 -5 12 -30 -46 -62 -159 -87 -44 -9 -82 -28
-87 -41 -11 -35 193 -12 255 30 115 77 140 85 140 43 0 -22 9 -39 19 -39 11 0
16 11 10 25 -9 24 74 75 123 75 12 0 34 14 48 30 14 17 38 30 55 30 24 0 25
-6 5 -30 -30 -37 -3 -39 69 -7 56 26 68 57 21 57 -16 0 -30 9 -30 20 0 11 16
20 35 20 19 0 61 14 92 30 32 17 78 30 103 30 26 0 59 21 77 48 46 70 -27 89
-196 49z"/>
<path d="M4361 4671 c-27 -32 61 -91 136 -91 21 0 49 -13 63 -30 14 -16 38
-30 55 -30 46 0 -5 53 -66 68 -27 7 -49 26 -49 43 0 16 -23 39 -51 49 -64 25
-60 25 -88 -9z"/>
<path d="M1444 4629 c-42 -47 -19 -73 31 -38 25 17 40 40 34 50 -16 26 -35 23
-65 -12z"/>
<path d="M1270 4626 c-46 -12 -110 -74 -110 -107 0 -12 24 -3 53 20 29 22 63
41 76 41 14 0 24 14 24 30 0 17 0 29 -1 28 -1 -2 -20 -7 -42 -12z"/>
<path d="M4102 4602 c-16 -10 -41 -13 -57 -7 -20 7 -27 -1 -22 -27 4 -21 24
-41 45 -45 28 -5 35 1 26 25 -16 39 21 42 64 5 18 -15 81 -33 140 -40 123 -13
96 33 -33 59 -36 7 -70 21 -76 30 -14 23 -51 22 -87 0z"/>
<path d="M2416 4589 c-4 -4 -57 -12 -117 -16 -60 -5 -113 -11 -119 -12 -5 -2
42 -21 105 -43 110 -37 195 -15 195 50 0 12 -55 30 -64 21z"/>
<path d="M2914 4549 c-74 -38 -114 -46 -173 -37 -51 8 -81 4 -92 -13 -10 -16
-7 -20 8 -11 15 9 23 -3 23 -34 0 -34 14 -53 45 -61 66 -18 155 -16 155 4 0 9
11 16 25 16 14 0 51 7 82 14 50 13 55 10 43 -26 -10 -32 -4 -40 24 -38 106 9
209 -5 201 -27 -10 -32 196 -121 271 -118 36 2 72 -16 105 -51 55 -59 227 -82
244 -33 9 28 -107 95 -165 96 -26 0 -42 16 -46 45 -5 32 3 45 29 45 30 0 29 5
-10 32 -25 18 -63 28 -84 22 -20 -5 -48 3 -61 18 -12 15 -38 28 -56 28 -19 0
-43 8 -53 19 -131 130 -375 183 -515 110z"/>
<path d="M1073 4503 c-50 -52 -52 -59 -20 -71 36 -14 70 25 81 93 8 47 3 45
-61 -22z"/>
<path d="M1990 4519 c-149 -39 -169 -49 -151 -77 18 -29 185 0 230 41 33 30
-16 52 -79 36z"/>
<path d="M3600 4492 c0 -30 43 -52 97 -51 26 0 24 8 -14 40 -56 46 -83 50 -83
11z"/>
<path d="M4680 4505 c0 -23 82 -70 97 -55 7 7 -5 26 -26 42 -43 31 -71 36 -71
13z"/>
<path d="M895 4428 c-41 -27 -75 -54 -75 -61 0 -6 13 -1 28 12 20 16 32 16 42
2 7 -12 23 -15 36 -8 13 8 7 -6 -14 -30 -21 -23 -52 -43 -69 -43 -24 0 -26 -5
-7 -24 28 -28 151 76 131 109 -7 11 0 27 15 36 18 11 21 24 8 36 -13 12 -48 1
-95 -29z"/>
<path d="M2087 4449 c-7 -17 -8 -35 -2 -40 17 -18 75 15 75 43 0 38 -58 36
-73 -3z"/>
<path d="M2430 4460 c-6 -10 28 -20 75 -24 55 -4 83 -15 80 -31 -3 -14 14 -25
40 -24 l45 0 -44 37 c-24 20 -41 41 -36 45 5 5 -27 10 -70 12 -44 1 -84 -5
-90 -15z"/>
<path d="M3795 4446 c-60 -9 -60 -9 -43 -54 13 -34 78 -44 97 -14 23 37 151
-21 131 -58 -34 -63 93 -148 175 -118 62 23 9 112 -117 197 -84 58 -122 65
-243 47z"/>
<path d="M2183 4408 c-31 -21 -40 -39 -27 -52 27 -27 169 19 158 51 -12 36
-80 37 -131 1z"/>
<path d="M4170 4399 c-14 -44 83 -179 128 -179 15 0 57 -18 93 -41 42 -25 71
-33 79 -20 18 31 123 25 191 -10 73 -37 76 -68 7 -63 -71 5 -107 -50 -62 -95
31 -31 37 -31 65 -2 18 17 26 31 19 31 -20 0 36 51 84 77 24 13 63 23 87 23
45 0 46 -16 8 -108 -13 -31 -9 -36 18 -26 21 8 33 3 33 -17 0 -16 18 -29 41
-29 22 0 46 -15 53 -33 15 -40 66 17 66 73 0 38 -80 120 -117 120 -14 0 -48
25 -76 55 -45 49 -65 55 -180 55 -81 0 -134 9 -144 25 -8 14 -62 39 -118 56
-57 16 -111 41 -119 55 -38 58 -143 94 -156 53z"/>
<path d="M4374 4395 c-25 -15 39 -24 120 -18 31 3 45 -9 50 -41 9 -64 123 -71
166 -10 21 30 23 49 9 63 -24 24 -309 29 -345 6z"/>
<path d="M1873 4324 c-25 -25 -60 -36 -133 -44 -21 -2 -22 -6 -5 -13 52 -21
24 -52 -36 -40 -95 19 -76 -68 20 -92 68 -18 183 -93 149 -97 -24 -3 127 -38
202 -46 64 -7 179 57 159 90 -6 10 -41 14 -77 10 -38 -5 -101 7 -148 28 -45
20 -99 32 -120 27 -21 -6 -54 6 -75 26 -34 35 -34 37 -1 44 19 3 43 29 53 56
10 27 28 44 39 37 11 -7 34 1 50 17 27 27 26 30 -10 28 -22 -2 -52 -16 -67
-31z"/>
<path d="M2490 4320 c-7 -11 -40 -20 -74 -20 -35 0 -111 -15 -170 -34 -88 -28
-116 -29 -148 -9 -32 20 -45 19 -69 -5 -42 -43 -36 -63 23 -68 29 -2 98 -27
154 -55 126 -64 245 -75 241 -24 -2 30 13 35 110 31 62 -2 122 1 133 7 26 16
110 -16 110 -41 0 -11 70 -35 155 -53 85 -19 178 -45 205 -58 31 -15 80 -19
130 -10 52 10 103 5 145 -12 36 -15 72 -28 80 -30 8 -1 24 -10 35 -19 42 -34
236 -80 259 -61 13 11 43 14 67 8 81 -21 117 8 67 54 -60 56 -54 91 8 50 28
-18 66 -31 85 -28 19 3 45 -1 58 -9 13 -8 63 -5 110 7 222 56 200 147 -32 127
-180 -16 -215 -20 -252 -33 -183 -63 -197 -63 -303 -14 -57 27 -123 46 -147
43 -25 -4 -57 6 -72 20 -42 39 -215 97 -229 75 -27 -45 -196 0 -244 64 -17 23
-64 36 -150 41 -69 5 -158 23 -199 42 -46 21 -78 26 -86 14z"/>
<path d="M1424 4276 c-45 -45 -27 -76 44 -76 66 0 67 2 45 50 -25 55 -52 63
-89 26z"/>
<path d="M3845 4286 c-40 -15 -30 -35 36 -74 70 -41 89 -34 69 28 -8 24 -19
38 -25 32 -6 -7 -21 -4 -33 5 -12 10 -33 14 -47 9z"/>
<path d="M4920 4224 c0 -25 45 -64 74 -64 43 0 29 32 -24 56 -27 13 -50 16
-50 8z"/>
<path d="M1069 4199 c-6 -10 -1 -19 11 -19 14 0 18 -16 10 -40 -7 -22 -4 -40
6 -40 27 0 89 75 70 85 -46 25 -86 31 -97 14z"/>
<path d="M810 4140 c-33 -36 -33 -40 -3 -42 18 -2 42 -5 53 -8 11 -3 30 -6 42
-7 15 -2 14 -14 -5 -36 -24 -30 -23 -31 18 -10 56 30 56 46 4 79 -22 14 -35
34 -29 45 23 36 -44 19 -80 -21z"/>
<path d="M1500 4130 c-20 -25 -19 -30 8 -30 37 0 42 -22 10 -54 -28 -28 44
-54 99 -37 22 7 48 -1 63 -19 26 -31 75 -38 128 -18 51 20 37 40 -44 64 -42
13 -98 46 -124 74 -53 57 -103 64 -140 20z"/>
<path d="M1240 4100 c-26 -17 -25 -19 5 -20 53 0 42 -38 -17 -61 -29 -11 -75
-37 -103 -59 -27 -22 -60 -33 -72 -26 -11 7 -44 15 -72 18 l-51 4 46 -21 c31
-15 44 -35 37 -58 -14 -53 40 -117 66 -77 51 78 72 100 95 100 15 0 20 -13 12
-33 -8 -21 -5 -29 8 -21 12 8 33 0 46 -16 13 -16 33 -25 42 -19 27 17 22 50
-7 44 -31 -6 -23 92 8 103 12 4 39 24 61 46 23 23 53 33 75 26 39 -12 75 19
44 38 -10 6 -46 13 -80 16 -35 2 -63 12 -63 20 0 22 -44 20 -80 -4z"/>
<path d="M4380 4065 c1 -27 29 -59 74 -82 80 -42 97 -22 31 38 -64 57 -105 75
-105 44z"/>
<path d="M2440 3938 c-27 -12 -104 -30 -170 -40 -179 -29 -196 -36 -169 -70
15 -18 57 -26 117 -24 70 3 108 -7 156 -43 60 -44 234 -63 286 -31 10 6 54 -2
99 -18 46 -15 100 -23 121 -18 21 6 70 -9 109 -34 44 -27 71 -34 71 -19 0 15
19 20 50 14 28 -5 56 -2 62 8 6 9 57 17 114 17 128 1 179 25 118 58 -23 12
-62 22 -88 22 -25 0 -59 9 -74 18 -19 12 -38 8 -57 -10 -15 -16 -36 -24 -45
-18 -10 6 -23 1 -31 -12 -10 -16 -19 -14 -31 5 -14 21 -17 22 -18 1 0 -15 -9
-21 -20 -14 -12 7 -15 21 -9 31 6 11 1 19 -11 19 -13 0 -16 11 -7 25 8 15 -1
12 -23 -5 -21 -16 -32 -21 -26 -10 8 13 -53 20 -166 20 -98 0 -178 -7 -178
-14 0 -14 -54 -9 -175 16 -48 9 -65 87 -20 90 28 2 215 -5 305 -11 33 -3 76 0
95 5 67 17 35 35 -70 38 -58 2 -141 8 -185 14 -44 6 -102 2 -130 -10z"/>
<path d="M3323 3923 c-21 -14 -18 -20 10 -29 20 -6 66 -20 102 -31 61 -19 64
-18 44 18 -11 22 -33 39 -48 39 -15 0 -40 4 -54 10 -15 5 -39 2 -54 -7z"/>
<path d="M4380 3924 c0 -29 70 -75 120 -78 l50 -3 -60 48 c-59 48 -110 64
-110 33z"/>
<path d="M1553 3850 c6 -16 35 -30 64 -29 51 0 51 1 14 30 -50 38 -93 37 -78
-1z"/>
<path d="M4810 3838 c-33 -10 -89 -14 -125 -8 -39 7 -65 3 -65 -9 0 -18 53
-30 102 -24 7 1 32 -19 56 -44 l43 -46 -61 9 c-34 5 -60 -1 -60 -12 0 -13 -39
-17 -105 -11 -106 11 -244 -33 -196 -62 11 -7 21 -8 21 -1 0 7 24 -6 53 -29
29 -22 66 -41 83 -41 47 0 164 -46 164 -64 0 -9 9 -16 19 -16 11 0 15 14 8 30
-6 17 0 30 16 31 17 0 10 15 -18 38 -60 50 -57 74 10 87 30 6 71 17 90 25 27
10 33 6 23 -19 -8 -20 1 -36 25 -43 20 -7 53 -20 72 -31 19 -10 35 -12 35 -5
0 30 -69 167 -84 167 -9 0 -16 10 -16 22 0 22 31 18 110 -14 38 -15 38 -14 5
20 -19 19 -35 43 -35 53 0 24 -90 22 -170 -3z"/>
<path d="M5040 3841 c0 -11 14 -21 30 -21 44 0 37 -25 -19 -67 -50 -38 -33
-93 28 -93 11 0 21 -13 21 -30 0 -34 31 -40 50 -10 7 11 -2 26 -19 32 -40 16
-40 81 1 104 50 28 26 93 -37 100 -30 4 -55 -3 -55 -15z"/>
<path d="M4300 3801 c-16 -11 -50 -14 -75 -8 -33 8 -59 -2 -91 -36 -24 -26
-69 -49 -99 -51 -30 -2 -88 -5 -128 -6 -51 -3 -64 -9 -45 -22 16 -10 18 -18 5
-18 -12 0 -33 14 -47 30 -46 55 -90 38 -52 -20 18 -27 24 -50 12 -50 -11 0
-20 10 -20 22 0 16 -9 15 -30 -2 -49 -41 52 -126 108 -91 8 5 59 14 113 20 55
6 126 17 159 25 33 7 79 11 103 8 55 -6 75 26 37 58 -46 38 -36 66 19 52 61
-15 255 25 240 50 -7 10 -20 13 -31 7 -10 -6 -47 2 -81 20 -35 17 -64 31 -65
31 -1 0 -15 -9 -32 -19z"/>
<path d="M940 3780 c0 -11 -13 -20 -30 -20 -63 0 -121 -82 -79 -113 100 -73
256 28 177 115 -37 41 -68 50 -68 18z"/>
<path d="M1381 3782 c-16 -11 -37 -15 -46 -9 -21 13 -73 -51 -74 -90 -1 -21
17 -24 74 -13 191 36 545 -53 545 -137 0 -14 21 -37 46 -51 25 -13 54 -44 65
-68 10 -24 37 -47 59 -50 35 -5 34 -1 -10 34 -63 50 -45 69 37 40 74 -26 119
-90 85 -124 -34 -34 -26 -54 19 -54 23 0 61 -11 85 -25 24 -13 80 -25 124 -26
44 -2 100 -9 125 -17 45 -15 57 1 30 38 -33 45 -143 109 -155 90 -18 -29 -84
-24 -153 11 -79 41 -69 48 87 58 119 8 135 4 176 -39 25 -27 52 -45 59 -41 7
5 26 0 42 -10 24 -15 23 -18 -6 -19 -19 0 -35 -9 -35 -20 0 -35 64 -21 101 22
l37 41 34 -40 c19 -23 43 -36 53 -30 37 23 -71 95 -137 90 -48 -3 -82 12 -131
56 -73 67 -97 73 -134 36 -20 -20 -23 -18 -12 10 17 44 -31 47 -111 5 -53 -27
-60 -27 -84 7 -34 48 -141 103 -200 103 -26 0 -58 18 -71 40 -21 32 -20 40 1
40 37 0 134 47 134 65 0 9 22 2 48 -15 29 -20 67 -27 98 -19 28 7 56 3 63 -9
7 -12 26 -22 42 -22 48 0 8 60 -48 72 -29 6 -96 25 -149 42 -80 25 -101 25
-128 3 -18 -15 -38 -26 -44 -25 -7 2 -31 -6 -55 -17 -39 -18 -109 -5 -417 75
-22 6 -53 2 -69 -8z"/>
<path d="M5247 3695 c-9 -14 -13 -50 -10 -80 17 -160 -59 -245 -146 -164 -29
27 -66 49 -82 49 -16 0 -29 10 -29 22 0 17 -8 17 -28 0 -21 -18 -30 -16 -39 7
-12 31 -75 42 -99 18 -23 -23 29 -67 78 -67 27 0 48 -10 48 -21 0 -46 57 -79
116 -67 71 14 95 -14 63 -74 -14 -26 -16 -48 -4 -56 10 -6 27 -27 37 -46 46
-84 116 96 111 284 -2 66 0 68 27 31 23 -29 30 -31 30 -9 0 17 -11 41 -23 53
-18 18 -18 36 0 75 12 29 23 56 23 61 0 20 -59 7 -73 -16z"/>
<path d="M1100 3660 c0 -11 -13 -20 -29 -20 -35 0 -58 -33 -41 -59 6 -11 29
-2 51 20 50 50 78 50 65 -1 -6 -22 -23 -40 -38 -40 -16 0 -28 -9 -28 -20 0
-11 32 -20 71 -20 64 0 70 5 58 42 -11 36 -7 40 29 29 51 -17 57 20 7 46 -62
31 -145 45 -145 23z"/>
<path d="M2500 3661 c0 -10 29 -50 65 -88 67 -72 100 -81 370 -104 47 -4 95
-13 107 -20 12 -7 52 3 90 23 64 35 72 35 133 4 119 -61 315 -82 315 -34 0 21
100 2 129 -25 10 -9 40 -17 67 -17 59 0 49 47 -12 56 -24 4 -55 23 -69 42 -39
54 -131 108 -165 95 -45 -18 -36 -48 23 -79 35 -19 45 -33 29 -43 -20 -12
-186 40 -287 91 -52 27 -174 22 -205 -9 -20 -20 -52 -22 -133 -9 -59 10 -154
24 -211 33 -64 9 -123 32 -152 59 -48 46 -94 58 -94 25z"/>
<path d="M1430 3620 c-7 -11 -34 -20 -61 -20 -27 0 -49 -8 -49 -18 0 -34 55
-39 110 -10 30 15 74 28 97 28 35 1 38 4 13 20 -39 25 -94 25 -110 0z"/>
<path d="M2174 3627 c-35 -35 -4 -47 115 -47 71 0 134 9 142 21 8 14 -18 20
-74 17 -48 -3 -106 2 -128 9 -23 7 -48 7 -55 0z"/>
<path d="M4400 3560 c0 -11 -26 -20 -58 -20 -31 0 -68 -13 -82 -30 -33 -39 37
-41 145 -3 57 20 69 31 51 49 -29 29 -56 31 -56 4z"/>
<path d="M1580 3540 c0 -30 156 -103 170 -80 7 11 4 20 -6 20 -11 0 -24 18
-30 40 -11 42 -134 61 -134 20z"/>
<path d="M1180 3422 l-70 -12 70 -29 c70 -29 165 -88 216 -136 15 -14 45 -25
67 -25 22 0 58 -10 80 -21 25 -14 48 -15 63 -3 34 27 154 5 154 -28 0 -16 18
-28 40 -28 27 0 40 -13 40 -40 0 -26 13 -40 39 -40 38 0 90 -64 70 -85 -6 -5
31 -15 82 -22 71 -10 100 -5 125 20 24 25 26 31 5 24 -16 -5 -44 5 -63 22 -20
17 -71 58 -114 91 -43 33 -92 83 -108 111 -34 59 -195 105 -321 93 -60 -5 -94
7 -169 60 -51 36 -103 65 -115 63 -11 -1 -52 -8 -91 -15z"/>
<path d="M5310 3405 c8 -19 32 -84 52 -145 37 -107 38 -108 31 -30 -8 91 -53
210 -80 210 -9 0 -11 -16 -3 -35z"/>
<path d="M4774 3407 c-7 -7 -39 -14 -70 -15 -39 -1 -77 -26 -125 -81 -38 -43
-56 -71 -41 -62 20 12 24 10 13 -7 -8 -14 -29 -19 -46 -13 -32 12 -85 -21 -85
-53 0 -10 18 -13 40 -6 22 7 40 4 40 -6 0 -17 171 -84 213 -84 8 0 -5 18 -29
40 -23 22 -50 39 -58 38 -42 -7 -66 5 -66 32 0 20 20 30 60 30 33 0 60 9 60
20 0 11 -9 20 -20 20 -11 0 -20 12 -20 27 0 38 150 26 191 -15 69 -69 131 9
90 111 -10 26 -19 35 -20 21 -1 -19 -11 -20 -40 -5 -44 24 -69 26 -87 8z"/>
<path d="M4382 3381 c-38 -6 -73 -22 -77 -36 -13 -38 189 -25 224 14 32 35
-18 42 -147 22z"/>
<path d="M2920 3348 c0 -53 83 -121 139 -112 70 10 63 44 -9 44 -28 0 -58 17
-70 40 -20 37 -60 56 -60 28z"/>
<path d="M953 3313 c5 -13 40 -47 79 -76 38 -30 62 -58 53 -64 -24 -15 -150
49 -181 91 -35 47 -77 46 -104 -4 -12 -22 -17 -41 -11 -42 6 -2 20 -5 31 -8
11 -3 35 -6 52 -7 22 -2 29 -16 22 -42 -13 -51 60 -101 116 -80 224 84 482
107 440 38 -6 -9 -2 -22 9 -28 10 -7 15 -24 9 -39 -6 -15 4 -32 21 -39 17 -6
31 -29 31 -51 0 -69 23 -102 73 -102 40 0 46 -8 36 -45 -9 -37 1 -50 53 -70
58 -21 61 -27 36 -59 -26 -33 -25 -34 9 -7 28 22 39 23 52 3 8 -14 55 -30 103
-35 48 -6 115 -22 148 -37 33 -15 102 -38 153 -51 57 -14 120 -50 165 -94 40
-39 79 -64 87 -57 8 8 5 20 -6 28 -48 35 -78 126 -48 145 60 37 231 -1 213
-48 -5 -14 16 -25 51 -27 33 -3 79 -17 103 -33 135 -88 624 10 500 101 -20 14
-50 26 -67 26 -17 0 -53 6 -81 12 -48 10 -48 10 -12 -20 21 -17 44 -27 52 -22
7 4 13 -5 13 -21 0 -33 -12 -35 -203 -29 -137 4 -186 20 -437 142 -96 48 -142
49 -125 5 11 -28 2 -31 -63 -20 -189 32 -259 50 -315 80 -33 18 -85 33 -116
33 -66 0 -234 92 -234 129 0 13 -25 48 -55 78 -83 80 -113 118 -140 178 -13
30 -39 55 -58 55 -36 0 -122 25 -257 75 -129 48 -208 63 -197 38z"/>
<path d="M3875 3292 c-30 -13 -116 -22 -192 -20 -132 4 -208 -14 -168 -39 10
-6 54 -13 97 -14 43 -2 171 -12 286 -23 165 -16 210 -15 223 6 20 31 119 47
119 19 0 -12 21 -21 46 -21 25 0 57 -11 70 -24 13 -13 28 -18 35 -12 6 6 -23
44 -65 84 -81 76 -210 100 -262 48 -19 -19 -29 -19 -48 0 -29 29 -69 28 -141
-4z"/>
<path d="M4949 3278 c-7 -12 -6 -29 4 -39 24 -24 76 11 58 39 -17 28 -45 28
-62 0z"/>
<path d="M540 3262 c0 -59 187 -172 220 -133 25 31 8 119 -19 102 -9 -6 -58 2
-109 17 -50 16 -92 22 -92 14z"/>
<path d="M2028 3218 c59 -46 94 -38 52 12 -14 16 -43 30 -65 30 -36 0 -35 -4
13 -42z"/>
<path d="M2678 3194 c11 -11 62 -22 114 -26 122 -9 97 15 -33 32 -63 8 -93 6
-81 -6z"/>
<path d="M3073 3195 c-13 -8 -14 -16 -3 -17 11 -2 38 -5 60 -8 22 -3 75 -15
119 -27 95 -27 118 -14 39 21 -32 14 -63 31 -68 39 -13 17 -116 12 -147 -8z"/>
<path d="M4969 3171 c-33 -23 -34 -31 -9 -61 26 -31 23 -40 -28 -83 -66 -57
-61 -125 7 -83 22 13 43 43 47 65 6 38 9 37 28 -9 12 -27 14 -54 6 -60 -8 -5
-12 -35 -9 -65 4 -30 -1 -55 -10 -55 -9 0 -16 -36 -15 -80 2 -75 31 -115 37
-50 5 69 10 80 31 76 13 -3 17 13 11 38 -8 29 -4 38 12 28 15 -10 23 4 23 42
0 32 14 77 32 102 21 31 25 53 12 70 -11 13 -23 45 -27 70 -4 25 -16 46 -27
47 -11 0 -35 9 -52 18 -21 11 -46 8 -69 -10z"/>
<path d="M4885 3145 c-41 -14 -28 -63 15 -60 22 2 40 8 40 14 -1 28 -32 54
-55 46z"/>
<path d="M2460 3121 c0 -51 174 -109 337 -111 120 -2 171 -11 184 -31 10 -16
38 -30 63 -31 196 -6 212 -10 258 -56 61 -61 128 -72 162 -27 38 50 173 26
196 -35 23 -60 63 -73 238 -81 81 -3 153 -15 160 -25 19 -30 98 -47 112 -25 8
14 25 15 50 1 52 -28 58 -26 46 19 -9 36 -2 38 107 27 79 -7 110 -4 97 9 -29
30 -210 52 -210 26 0 -11 -17 -21 -39 -21 -21 0 -44 -9 -51 -20 -18 -28 -51
-25 -45 5 3 14 -7 22 -22 19 -15 -3 -38 2 -50 11 -13 9 -68 19 -123 22 -55 3
-109 14 -119 24 -10 10 -40 19 -65 19 -32 0 -49 15 -58 50 -8 33 -30 54 -65
61 -133 27 -171 42 -179 67 -7 20 5 25 44 18 71 -14 86 16 17 33 -32 9 -57 5
-61 -7 -4 -12 -20 -22 -36 -22 -41 0 -34 -35 12 -60 57 -31 51 -80 -10 -80
-31 0 -50 11 -50 30 0 46 -89 92 -235 123 -256 54 -315 62 -354 47 -22 -8 -67
-7 -101 1 -109 27 -210 37 -210 20z"/>
<path d="M3692 3112 c13 -34 75 -53 108 -32 15 9 1 23 -41 37 -81 29 -80 29
-67 -5z"/>
<path d="M5340 2982 c0 -103 -5 -124 -29 -115 -17 6 -37 0 -45 -15 -9 -14 -41
-42 -71 -61 -50 -33 -52 -38 -22 -60 21 -16 29 -43 23 -75 -6 -35 2 -58 27
-73 20 -13 37 -37 37 -53 0 -65 83 -2 108 83 23 73 18 449 -6 473 -16 16 -22
-12 -22 -104z"/>
<path d="M820 3051 c0 -15 -11 -32 -25 -37 -14 -5 3 -9 38 -9 43 1 60 9 54 26
-15 37 -67 53 -67 20z"/>
<path d="M4750 3060 c-6 -10 -6 -51 1 -90 10 -54 5 -81 -22 -111 -19 -21 -30
-39 -23 -39 31 0 114 49 116 68 6 51 -8 100 -34 127 -16 15 -23 36 -17 47 6
10 7 18 1 18 -5 0 -15 -9 -22 -20z"/>
<path d="M4370 3036 c-22 -13 -67 -26 -100 -29 -128 -12 -213 -51 -175 -79 29
-20 38 -20 51 4 9 15 46 28 83 28 82 0 217 54 201 81 -15 23 -11 23 -60 -5z"/>
<path d="M2180 3035 c0 -6 63 -41 139 -78 77 -37 140 -77 140 -90 1 -26 116
-78 134 -60 7 6 -10 20 -37 31 -27 10 -86 56 -131 102 -72 74 -245 140 -245
95z"/>
<path d="M539 2907 c-13 -47 -19 -99 -12 -116 16 -42 -5 -91 -35 -79 -14 5
-36 -21 -52 -61 -15 -39 -36 -71 -46 -71 -11 0 -10 -11 2 -25 11 -14 30 -76
41 -139 56 -300 622 -1096 780 -1096 11 0 23 -7 26 -15 36 -82 456 -306 722
-386 84 -25 46 14 -40 42 -41 13 -90 37 -108 52 -18 16 -65 38 -105 49 -39 11
-72 28 -72 38 0 10 -13 14 -30 7 -16 -6 -30 -1 -30 11 0 12 -15 22 -34 22 -29
0 -29 4 5 29 24 18 29 30 13 30 -14 1 -45 19 -69 41 -23 22 -63 40 -87 40 -65
0 -168 64 -168 105 0 19 -9 35 -21 35 -27 0 -270 244 -264 264 3 9 -14 16 -37
16 -28 0 -39 9 -31 28 5 16 -7 44 -28 63 -22 19 -39 55 -39 79 0 26 -31 68
-80 107 -44 36 -78 71 -76 79 7 35 -33 138 -69 178 -23 26 -33 54 -24 70 9 14
9 20 1 13 -20 -18 -93 45 -79 68 6 9 23 1 38 -19 21 -29 31 -31 52 -11 18 18
18 25 2 25 -13 0 -34 19 -46 42 -14 26 -15 38 -2 30 11 -7 26 -4 33 8 7 11 1
20 -12 20 -14 0 -18 7 -10 15 9 8 36 -11 62 -43 34 -43 56 -54 83 -43 30 13
32 18 7 26 -57 21 -140 101 -115 112 14 5 8 11 -13 11 -21 1 -33 8 -26 15 7 7
3 29 -8 50 -32 61 -1 82 56 37 28 -22 67 -40 86 -40 73 0 240 -126 240 -181 0
-10 10 -19 21 -19 30 0 80 -52 65 -68 -7 -6 -3 -12 9 -12 12 0 68 -44 124 -99
55 -54 101 -90 101 -80 0 35 44 20 53 -18 10 -36 133 -110 153 -91 5 5 -15 35
-43 66 -29 31 -71 87 -93 124 -23 37 -68 82 -101 98 -99 50 -230 155 -324 259
-48 54 -99 94 -113 89 -40 -16 -132 28 -132 63 0 17 -14 46 -31 63 -39 39 8
103 54 74 14 -9 58 -18 96 -20 46 -2 79 -18 98 -46 15 -23 45 -42 65 -42 21 0
38 -9 38 -20 0 -32 55 -23 68 11 7 19 -2 35 -23 41 -19 6 -48 19 -65 29 -49
30 -189 96 -200 94 -5 -1 -32 10 -60 25 -90 49 -115 40 -141 -53z"/>
<path d="M4459 2969 c-72 -38 -146 -122 -122 -137 11 -7 38 6 59 28 54 59 178
76 211 30 23 -31 32 -32 75 -8 43 24 44 27 10 34 -21 5 -56 25 -79 46 -46 43
-82 45 -154 7z"/>
<path d="M412 2949 c-6 -18 -22 -25 -35 -17 -14 9 -18 5 -9 -9 8 -13 0 -29
-18 -36 -18 -7 -28 -25 -22 -40 6 -15 3 -27 -6 -27 -37 0 -36 -102 0 -146 28
-33 37 -36 37 -13 1 17 -9 41 -22 54 -18 18 -10 28 31 44 44 17 52 30 41 64
-7 23 -5 48 6 54 28 18 51 103 28 103 -10 0 -24 -14 -31 -31z"/>
<path d="M1261 2951 c-15 -18 -42 -27 -62 -21 -20 7 -42 2 -49 -10 -7 -12 -47
-18 -92 -12 -93 10 -117 -13 -46 -45 28 -13 45 -15 39 -5 -20 32 94 35 181 4
91 -31 148 -20 148 29 0 17 -9 26 -20 19 -12 -7 -15 -21 -9 -31 6 -11 -2 -19
-19 -19 -19 0 -26 11 -20 29 20 52 -20 100 -51 62z"/>
<path d="M3840 2885 c0 -8 20 -16 45 -18 25 -2 86 -9 135 -16 l90 -13 -67 31
c-70 32 -203 43 -203 16z"/>
<path d="M4165 2876 c9 -28 135 -47 135 -19 0 18 -65 42 -117 43 -14 0 -23
-11 -18 -24z"/>
<path d="M1134 2807 c-17 -17 64 -87 101 -87 41 0 19 49 -27 57 -21 4 -43 16
-49 26 -7 10 -18 12 -25 4z"/>
<path d="M4840 2782 c0 -55 52 -93 68 -50 13 34 -18 88 -50 88 -10 0 -18 -17
-18 -38z"/>
<path d="M4700 2730 c-33 -35 -39 -50 -18 -50 37 0 118 56 118 81 0 36 -53 19
-100 -31z"/>
<path d="M1280 2694 c0 -33 56 -66 157 -93 46 -13 83 -34 83 -48 0 -28 105
-113 139 -113 42 0 19 60 -39 103 -33 24 -65 61 -71 81 -20 64 -269 129 -269
70z"/>
<path d="M3331 2702 c-8 -13 6 -30 33 -40 26 -10 49 -10 53 0 9 25 78 23 86
-2 9 -25 137 -3 137 23 0 9 -26 17 -57 17 -32 0 -98 6 -148 12 -57 8 -95 5
-104 -10z"/>
<path d="M1120 2681 c0 -31 61 -81 100 -81 20 0 42 -16 47 -35 6 -19 9 -8 7
25 -3 50 -14 61 -59 66 -30 4 -55 15 -55 25 0 11 -9 19 -20 19 -11 0 -20 -8
-20 -19z"/>
<path d="M3800 2600 c-16 -11 -60 -20 -97 -20 -52 0 -65 -7 -55 -31 9 -25 -1
-28 -56 -18 -43 8 -93 2 -135 -17 -37 -17 -102 -35 -145 -41 -95 -14 -135 -46
-92 -74 35 -23 158 -6 256 35 49 20 75 23 91 7 29 -29 94 -27 88 3 -6 27 68
66 160 83 49 9 65 5 65 -17 0 -33 71 -41 90 -11 13 22 129 6 159 -22 12 -10
10 -17 -5 -17 -13 0 -24 -8 -24 -18 0 -23 105 4 114 29 13 40 -183 128 -258
116 -43 -7 -76 -3 -85 11 -16 27 -32 27 -71 2z"/>
<path d="M5058 2515 c-13 -25 -47 -65 -76 -90 -39 -33 -46 -48 -27 -61 14 -9
29 -34 33 -55 29 -156 32 -208 12 -258 -17 -46 -15 -64 13 -94 31 -35 31 -37
-10 -37 -24 0 -43 -9 -43 -19 0 -11 -38 -30 -85 -43 -47 -13 -74 -27 -60 -32
46 -17 26 -62 -65 -149 -49 -48 -89 -103 -90 -124 0 -20 -11 -32 -25 -27 -14
4 -52 -6 -85 -23 -33 -17 -64 -32 -70 -34 -67 -17 -81 -35 -52 -67 27 -30 -75
-136 -127 -131 -6 1 -26 -17 -44 -39 -28 -35 -37 -37 -66 -13 -25 21 -38 22
-56 4 -13 -13 -45 -23 -72 -23 -27 0 -44 -6 -37 -13 8 -7 2 -27 -11 -44 -21
-25 -18 -28 20 -18 64 16 56 3 -34 -57 -72 -47 -82 -49 -111 -21 -41 41 -353
17 -382 -30 -21 -33 36 -58 102 -45 55 11 57 9 29 -20 -17 -18 -58 -34 -90
-35 -71 -2 -271 22 -291 35 -9 5 -21 -1 -28 -12 -8 -12 -25 -13 -46 -2 -76 41
-324 35 -324 -7 0 -38 67 -57 140 -41 34 8 60 5 60 -6 0 -11 18 -24 40 -30 26
-7 40 0 40 18 0 15 19 28 41 28 23 0 37 -8 31 -17 -6 -10 13 -13 41 -7 39 7
50 2 43 -18 -5 -15 -31 -29 -58 -30 -26 -2 -70 -6 -98 -9 -74 -9 -339 38 -450
80 -22 8 -71 26 -110 39 -38 13 -75 26 -80 28 -6 2 -13 -5 -17 -16 -30 -87
-47 -98 -74 -49 -14 27 -21 55 -16 64 15 25 -22 17 -63 -13 -28 -20 -53 -22
-88 -9 -75 29 -251 -16 -199 -50 362 -243 1558 -141 2137 181 478 268 1120
1014 1120 1303 l0 82 -87 -12 c-96 -13 -147 22 -83 58 28 16 30 23 7 37 -41
26 -53 22 -79 -27z"/>
<path d="M1680 2523 c0 -32 146 -143 189 -143 35 0 2 65 -56 109 -65 50 -133
67 -133 34z"/>
<path d="M2430 2520 c-11 -18 66 -60 111 -60 39 0 17 56 -26 67 -61 17 -71 16
-85 -7z"/>
<path d="M3800 2463 c0 -9 23 -27 50 -39 40 -19 50 -18 50 4 0 15 -14 33 -32
40 -43 17 -68 15 -68 -5z"/>
<path d="M4320 2440 c0 -11 28 -20 61 -20 36 0 56 8 49 20 -7 11 -34 20 -61
20 -27 0 -49 -9 -49 -20z"/>
<path d="M1393 2371 c-13 -35 78 -151 119 -151 43 0 33 -36 -14 -50 -61 -20
-36 -31 90 -41 132 -10 138 4 37 82 -41 32 -103 88 -136 124 -70 73 -80 77
-96 36z"/>
<path d="M3960 2373 c0 -21 20 -29 65 -26 36 2 65 12 65 23 0 11 -29 23 -65
26 -47 5 -65 -2 -65 -23z"/>
<path d="M1800 2327 c0 -24 119 -94 134 -80 6 7 28 3 47 -8 47 -25 69 8 39 56
-18 29 -20 27 -8 -15 l13 -50 -37 44 c-38 44 -188 86 -188 53z"/>
<path d="M2448 2317 c-7 -11 10 -13 40 -6 39 10 52 6 52 -16 0 -17 -18 -35
-40 -41 -82 -21 -40 -61 55 -53 8 1 12 16 8 33 -4 23 3 28 30 16 89 -38 185
-3 138 49 -35 39 -261 53 -283 18z"/>
<path d="M4221 2312 c-34 -42 47 -63 100 -26 41 29 41 29 -5 41 -64 17 -68 17
-95 -15z"/>
<path d="M4547 2310 c-8 -22 -20 -24 -48 -10 -41 22 -65 1 -41 -36 20 -33 142
9 142 48 0 37 -38 36 -53 -2z"/>
<path d="M4807 2285 c7 -33 0 -45 -26 -45 -64 0 -154 -41 -154 -71 0 -40 26
-36 73 11 22 22 57 40 79 40 51 0 68 31 41 75 -20 31 -22 30 -13 -10z"/>
<path d="M637 2254 c23 -26 43 -63 43 -84 0 -20 6 -31 13 -24 24 24 63 -26 53
-67 -11 -42 25 -55 39 -14 5 14 20 2 37 -29 15 -30 35 -54 43 -55 8 -1 24 -1
34 -1 11 0 42 -22 69 -50 28 -27 66 -50 85 -50 31 0 31 3 -4 29 -35 26 -35 30
-5 30 50 1 176 -63 164 -82 -18 -29 46 -18 71 11 29 36 -106 120 -227 141 -49
9 -100 36 -133 73 -30 32 -61 58 -68 58 -7 0 -60 36 -119 80 -117 89 -162 105
-95 34z"/>
<path d="M3725 2287 c-42 -17 -28 -42 30 -53 73 -14 96 3 51 37 -39 30 -44 31
-81 16z"/>
<path d="M4044 2269 c-53 -38 -56 -63 -9 -75 19 -5 2 -10 -39 -12 -68 -2 -114
-30 -89 -55 17 -17 212 38 201 57 -6 9 9 16 32 16 51 0 45 35 -12 73 -34 22
-47 22 -84 -4z"/>
<path d="M3475 2264 c-30 -4 -55 -14 -55 -24 0 -10 -24 -20 -53 -24 -30 -3
-58 -17 -62 -31 -8 -24 4 -23 95 10 97 34 380 -32 380 -89 0 -46 69 -21 76 27
4 24 25 48 50 54 34 9 38 17 19 36 -20 20 -30 20 -49 1 -32 -32 -126 -30 -203
4 -80 36 -129 44 -198 36z"/>
<path d="M2724 2191 l-67 -47 73 -24 c40 -13 78 -19 85 -12 6 7 28 -3 48 -20
26 -24 55 -29 106 -19 94 17 97 77 6 110 -36 13 -81 33 -100 43 -51 27 -78 21
-151 -31z"/>
<path d="M4322 2205 c8 -47 -5 -67 -37 -56 -24 7 -42 -4 -55 -34 -14 -31 -35
-44 -70 -41 -84 7 -138 -12 -162 -57 -22 -41 -19 -42 45 -28 37 9 92 14 122
13 30 -1 55 6 55 16 0 10 16 14 35 10 44 -11 107 30 70 45 -47 19 -26 52 25
39 53 -14 56 -8 37 63 -10 40 -71 68 -65 30z"/>
<path d="M1601 2038 c13 -24 40 -47 60 -52 20 -6 40 -29 43 -53 9 -63 176 -77
176 -14 0 27 -13 41 -39 41 -22 0 -67 27 -101 60 -75 73 -175 86 -139 18z"/>
<path d="M1995 2044 c-37 -5 -55 -18 -55 -42 0 -41 85 -86 130 -69 18 7 30 0
30 -17 0 -35 86 -84 123 -71 15 5 45 1 67 -10 33 -16 36 -15 15 7 -38 40 -30
62 15 38 22 -12 37 -32 35 -46 -3 -16 21 -23 75 -20 44 2 122 6 174 9 51 2
106 -7 122 -20 15 -12 50 -23 76 -23 101 -1 148 -8 161 -26 7 -11 24 -12 40
-2 15 9 49 14 76 10 42 -5 46 -2 24 25 -14 17 -39 26 -54 20 -16 -6 -45 -5
-64 4 -30 12 -28 16 14 27 111 30 67 62 -72 53 -101 -6 -149 -1 -183 21 -112
73 -256 103 -194 40 30 -29 28 -32 -25 -32 -31 0 -66 9 -78 21 -12 12 -70 22
-129 24 -71 1 -120 14 -144 36 -42 39 -97 52 -179 43z"/>
<path d="M3014 2034 c-16 -42 36 -81 87 -68 30 8 39 3 32 -15 -6 -17 6 -27 33
-28 24 -1 67 -4 94 -6 102 -9 260 4 260 21 0 30 -106 63 -220 68 -27 2 -56 11
-63 21 -24 35 -210 41 -223 7z"/>
<path d="M3520 2022 l-50 -14 50 -14 c73 -20 140 -17 140 6 0 11 -8 20 -18 20
-10 0 -31 4 -45 8 -15 4 -49 2 -77 -6z"/>
<path d="M3851 2001 c-6 -10 -2 -24 9 -31 11 -7 14 -36 7 -65 -11 -43 -7 -49
22 -38 19 7 52 13 73 13 52 0 48 28 -10 59 -28 15 -44 38 -38 54 12 30 -45 38
-63 8z"/>
<path d="M4592 1949 c-9 -24 -1 -30 32 -25 23 3 47 17 51 31 12 37 -69 31 -83
-6z"/>
<path d="M4325 1939 c-46 -18 -64 -99 -23 -99 31 0 138 79 138 101 0 23 -55
22 -115 -2z"/>
<path d="M4735 1904 c-19 -4 -35 -15 -35 -25 0 -9 -20 -36 -44 -58 -24 -23
-35 -41 -24 -41 11 0 31 11 44 24 13 13 24 18 24 10 0 -8 19 5 41 27 48 48 45
74 -6 63z"/>
<path d="M955 1821 c25 -21 57 -42 70 -47 20 -7 20 -15 0 -35 -36 -38 -31 -59
14 -59 21 0 44 -9 51 -20 7 -11 39 -20 71 -20 33 0 59 9 59 20 0 11 -13 20
-28 20 -16 0 -70 41 -121 90 -51 50 -108 90 -127 89 -28 0 -27 -7 11 -38z"/>
<path d="M3443 1843 c-32 -21 4 -53 36 -33 11 6 42 -3 70 -21 67 -44 234 -5
185 44 -19 19 -264 27 -291 10z"/>
<path d="M3937 1797 c34 -40 95 -48 142 -18 41 26 26 34 -81 46 -89 9 -92 8
-61 -28z"/>
<path d="M1500 1792 c0 -32 95 -55 113 -27 7 11 0 27 -15 37 -43 27 -98 21
-98 -10z"/>
<path d="M1898 1778 c63 -51 40 -70 -51 -42 -78 24 -116 15 -94 -21 9 -15 -21
-17 -101 -8 -132 16 -134 -6 -7 -67 103 -50 115 -50 115 1 0 39 3 39 44 10 25
-17 70 -31 100 -31 31 0 56 -9 56 -20 0 -11 25 -19 55 -17 30 2 73 -2 95 -9
51 -17 80 4 82 61 1 40 -92 67 -141 40 -15 -8 -68 73 -59 88 12 20 -29 42 -90
49 l-52 5 48 -39z"/>
<path d="M3775 1717 c-47 -17 -51 -24 -26 -49 31 -31 91 -38 91 -10 0 9 18 22
40 28 22 6 40 20 40 32 0 27 -70 26 -145 -1z"/>
<path d="M1319 1707 c-16 -4 -41 -26 -55 -49 -25 -39 -24 -39 35 -8 44 22 97
87 56 68 -3 -2 -19 -6 -36 -11z"/>
<path d="M3208 1677 c-8 -13 1 -34 19 -47 18 -14 33 -35 33 -48 0 -40 82 -56
175 -35 77 18 92 16 108 -14 11 -18 28 -28 39 -22 34 21 125 25 170 8 51 -19
128 -3 128 26 0 12 -29 16 -70 9 -39 -6 -66 -4 -60 6 25 41 -155 86 -328 82
-66 -2 -125 8 -154 27 -33 22 -50 24 -60 8z"/>
<path d="M3920 1660 c-25 -47 -25 -47 57 -18 75 26 83 58 14 58 -29 0 -58 -17
-71 -40z"/>
<path d="M1358 1638 c-23 -14 -21 -17 7 -18 19 0 35 -9 35 -20 0 -11 -9 -20
-20 -20 -20 0 -17 -69 3 -90 6 -6 23 3 37 20 14 16 40 30 57 30 22 -1 25 -6
10 -15 -66 -42 -38 -95 53 -101 49 -4 106 -21 126 -39 42 -38 94 -50 94 -22 0
25 -28 52 -130 128 -44 32 -92 70 -106 84 -15 14 -45 25 -67 25 -21 0 -34 8
-28 18 16 26 -38 41 -71 20z"/>
<path d="M2524 1589 c-14 -16 -18 -30 -10 -30 9 -1 42 -5 75 -9 74 -10 100 6
70 42 -31 36 -102 35 -135 -3z"/>
<path d="M3020 1603 c0 -24 93 -63 151 -63 79 0 56 33 -40 58 -106 26 -111 27
-111 5z"/>
<path d="M4120 1556 c-27 -10 -72 -22 -100 -26 -121 -16 -166 -82 -53 -78 29
1 53 -5 53 -15 0 -9 9 -17 20 -17 11 0 18 11 15 25 -3 15 12 23 40 19 34 -5
45 3 45 33 0 22 16 43 35 47 19 4 26 12 15 19 -11 7 -42 4 -70 -7z"/>
<path d="M2725 1546 c-57 -11 -58 -38 -2 -67 32 -18 53 -17 90 3 86 45 28 88
-88 64z"/>
<path d="M2190 1520 c-7 -11 23 -56 66 -100 77 -79 144 -104 144 -54 0 15 25
36 55 47 51 20 52 22 15 38 -22 9 -44 21 -50 28 -37 43 -210 74 -230 41z"/>
<path d="M2906 1481 c-5 -21 -22 -34 -36 -28 -14 5 -32 0 -39 -12 -22 -35 115
-17 143 18 36 45 31 61 -16 61 -24 0 -46 -16 -52 -39z"/>
<path d="M1813 1455 c9 -14 16 -38 16 -54 1 -15 26 -35 56 -43 85 -23 72 46
-16 89 -47 22 -66 25 -56 8z"/>
<path d="M2000 1463 c0 -24 138 -57 164 -40 18 11 12 16 -19 17 -25 0 -45 7
-45 15 0 8 -23 16 -50 18 -28 1 -50 -3 -50 -10z"/>
<path d="M1282 1410 c16 -17 61 -39 99 -50 l69 -19 -60 50 c-68 56 -162 72
-108 19z"/>
<path d="M3015 1425 c-19 -4 -35 -16 -35 -25 0 -34 67 -55 121 -40 31 9 63 8
74 -3 24 -24 85 0 85 34 0 37 -148 57 -245 34z"/>
<path d="M2495 1377 c13 -17 19 -36 13 -42 -7 -7 8 -7 33 0 32 8 41 4 30 -13
-9 -15 -36 -20 -73 -12 -32 8 -58 5 -58 -6 0 -10 -27 -24 -60 -31 -53 -11 -85
-50 -45 -55 8 -1 38 -4 65 -7 28 -3 55 1 60 9 6 8 28 7 50 -1 34 -14 35 -16 5
-18 -19 0 -35 -9 -35 -20 0 -11 25 -11 65 0 36 11 69 19 75 20 5 0 -8 14 -30
32 -38 30 -36 31 33 19 43 -8 76 -5 80 7 4 11 35 22 70 24 43 4 59 14 52 32
-5 15 -23 23 -38 17 -15 -6 -27 1 -27 14 0 17 -33 26 -95 28 -52 1 -117 9
-145 18 -43 13 -47 11 -25 -15z"/>
<path d="M3664 1384 c-31 -5 -44 -18 -39 -41 4 -18 20 -29 36 -24 16 4 72 12
125 17 59 5 93 17 89 30 -8 23 -123 32 -211 18z"/>
<path d="M3360 1360 c0 -11 -25 -20 -55 -20 -89 -1 -121 -33 -49 -49 48 -11
79 -2 138 38 75 50 75 51 21 51 -30 0 -55 -9 -55 -20z"/>
<path d="M2900 1243 c0 -9 -28 -12 -63 -7 -50 7 -61 3 -52 -20 7 -20 -2 -28
-31 -27 -28 1 -45 -13 -49 -39 -6 -34 -4 -35 14 -8 16 26 37 30 105 17 47 -8
101 -7 119 3 19 10 60 12 93 6 89 -18 100 27 16 62 -78 33 -152 39 -152 13z"/>
<path d="M1797 1219 c-19 -10 -54 -17 -78 -14 -78 9 -64 -39 31 -103 73 -49
100 -58 130 -42 54 29 74 25 116 -20 38 -41 82 -43 219 -10 99 23 56 97 -71
122 -66 13 -93 -22 -34 -45 36 -14 40 -67 5 -67 -14 0 -43 32 -64 70 -20 39
-47 71 -59 73 -12 2 -31 4 -42 6 -11 2 -40 14 -64 27 -51 28 -47 28 -89 3z"/>
<path d="M3500 1192 c0 -34 79 -51 137 -29 73 27 48 57 -47 57 -63 0 -90 -8
-90 -28z"/>
<path d="M3397 1160 c-18 -11 -102 -30 -187 -43 -165 -24 -167 -46 -7 -70 136
-21 197 -15 233 22 19 18 25 32 14 30 -66 -12 -93 7 -34 24 36 10 60 27 54 38
-15 24 -31 23 -73 -1z"/>
<path d="M3911 1113 c-35 -25 -34 -27 11 -39 52 -14 90 10 69 44 -18 29 -36
28 -80 -5z"/>
</g>
</svg>
